<svg width="73" height="72" viewBox="0 0 73 72" fill="none" xmlns="http://www.w3.org/2000/svg">
<rect x="10" y="6" width="52" height="60" fill="#F194B4"/>
<path fill-rule="evenodd" clip-rule="evenodd" d="M9.76976 0.0903661C6.00713 0.540331 2.63779 2.99996 1.00685 6.48723C-0.0600042 8.76824 0.000631716 6.9901 0.000631716 36.0094C0.000631716 61.2269 0.015959 62.5998 0.309033 63.6243C1.45859 67.6425 4.46883 70.6038 8.52555 71.7073C9.53278 71.9813 11.3151 72 36.4664 72C61.5539 72 63.404 71.9808 64.4264 71.7089C68.2486 70.6927 71.0965 68.1104 72.5609 64.3334L72.9323 63.3755L72.9774 36.4626C73.0276 6.46965 73.1054 8.55594 71.843 6.08337C70.7291 3.90205 68.5634 1.88857 66.3362 0.963759C63.9642 -0.0210887 65.9456 0.0439266 37.1402 0.00511648C22.6423 -0.0144544 10.3256 0.0238582 9.76976 0.0903661ZM39.9587 9.79621C43.3331 11.3742 45.0806 15.1401 44.1214 18.7671C43.0808 22.7019 38.6994 25.2531 34.7304 24.2351C32.7171 23.7187 30.7266 22.3002 29.7776 20.7057C28.3705 18.3414 28.3727 14.9694 29.7827 12.7068C31.8898 9.32551 36.2719 8.07214 39.9587 9.79621ZM35.9472 13.7041C35.0536 13.8558 34.2302 14.4265 33.7885 15.2004C33.2283 16.1818 33.3294 17.7123 34.0125 18.5945C35.8119 20.9175 39.6667 19.6747 39.6667 16.7716C39.6667 16.3545 39.5643 15.772 39.4391 15.4769C39.2306 14.9856 38.1348 13.8733 37.8501 13.8638C37.7839 13.8616 37.4644 13.8018 37.1402 13.7308C36.8159 13.6598 36.279 13.6479 35.9472 13.7041ZM23.4572 15.36C24.0408 15.7103 24.0709 15.7645 25.2574 18.5983C26.5631 21.7167 30.1968 27.439 36.1904 35.8147C38.2341 38.6709 39.1902 39.8548 40.083 40.6353C43.3842 43.5207 45.9711 44.6973 48.6056 44.5117C52.1715 44.2604 54.6267 41.0581 55.3271 35.7447C55.6166 33.5478 55.5644 33.4956 54.5077 34.9248C53.6761 36.0491 50.8805 38.761 49.8271 39.465C48.4077 40.4139 46.8869 40.1693 46.2216 38.885C45.561 37.6098 45.8825 36.6745 47.3712 35.5416C48.5266 34.6622 50.3068 32.8497 51.1469 31.6972C53.4513 28.5367 53.9331 24.8603 52.3478 22.5355C52.0221 22.0577 51.6945 21.7038 51.62 21.7492C51.5456 21.7945 51.0738 22.5959 50.5717 23.5302C48.6101 27.1793 44.2814 33.6419 43.5489 34.015C42.4974 34.5504 41.063 34.1724 40.4073 33.1871C40.2372 32.9313 40.1236 32.4499 40.1304 32.0123C40.1405 31.3522 40.3628 30.9388 42.1546 28.2497C45.686 22.9502 47.6743 19.4281 48.4228 17.1469C48.8702 15.7831 49.4708 15.1873 50.515 15.0716C51.63 14.9477 52.1324 15.2275 53.6892 16.8389C57.9557 21.2546 60.1136 26.5413 60.0929 32.5265C60.0778 36.9515 58.814 41.1068 56.3945 44.6875C53.1624 49.4704 49.1771 50.635 43.5162 48.4504C43.2818 48.36 42.8854 49.389 40.9331 55.1563C38.4294 62.5527 38.2944 62.8261 37.0332 63.0589C36.2411 63.2054 35.218 62.8884 34.8023 62.3681C34.6182 62.1376 33.4314 58.8878 32.1648 55.1463C30.2154 49.3876 29.8196 48.36 29.5851 48.4504C27.3663 49.3067 26.7652 49.4278 24.7603 49.4218C22.456 49.415 21.4666 49.1495 19.8781 48.1112C16.97 46.2104 14.2979 41.4342 13.29 36.3352C12.9326 34.5267 12.8902 30.454 13.2098 28.6289C13.7183 25.7259 15.0075 22.6107 16.7796 20.0018C17.845 18.4334 20.6175 15.4263 21.22 15.1857C21.8395 14.9382 22.8911 15.0201 23.4572 15.36ZM20.7809 22.4397C19.1065 24.8361 19.6007 28.4552 22.0676 31.8631C22.7883 32.8589 25.0699 35.1075 26.2348 35.9703C27.4175 36.8463 27.4711 38.4445 26.3532 39.4994C25.9102 39.9172 25.7002 39.99 24.9382 39.99C24.1752 39.99 23.9045 39.8958 23.1006 39.3506C21.9121 38.5445 19.4131 36.0983 18.5283 34.875C18.1577 34.3627 17.7976 33.9417 17.7282 33.9399C17.5583 33.9351 17.5741 34.611 17.7769 36.0094C18.0494 37.8901 18.4031 39.0749 19.1239 40.5234C21.0686 44.4306 24.4583 45.5418 28.6343 43.6411C30.4407 42.819 33.5517 40.4467 33.385 40.0187C33.3427 39.9104 32.4653 38.6455 31.435 37.2081C27.5754 31.8223 24.1829 26.6171 22.2497 23.1142C21.809 22.3161 21.4205 21.663 21.3861 21.663C21.3517 21.663 21.0794 22.0124 20.7809 22.4397ZM35.2603 44.8102L33.9775 45.8816L35.0735 49.238C36.3516 53.1514 36.4479 53.4148 36.5603 53.3041C36.6067 53.2584 37.2037 51.5736 37.8867 49.5603L39.1287 45.8996L38.0923 45.0295C37.5224 44.551 36.9406 44.0647 36.7996 43.9491C36.5833 43.7716 36.3421 43.9068 35.2603 44.8102Z" fill="#006C67"/>
</svg>
